<?xml version="1.0" encoding="UTF-8"?>
<svg version="1.1" xmlns="http://www.w3.org/2000/svg" width="100" height="100">
<path d="M0 0 C1.14799072 -0.01268417 2.29598145 -0.02536835 3.47875977 -0.03843689 C4.71424561 -0.03550125 5.94973145 -0.03256561 7.22265625 -0.02954102 C8.49488037 -0.03478287 9.76710449 -0.04002472 11.07788086 -0.04542542 C13.76805556 -0.05184974 16.45738223 -0.05194183 19.14746094 -0.04199219 C22.59105911 -0.03049521 26.03363294 -0.05072664 29.47709656 -0.07990932 C32.76728844 -0.10268591 36.05740398 -0.09580456 39.34765625 -0.09204102 C41.20088501 -0.10889198 41.20088501 -0.10889198 43.09155273 -0.12608337 C44.23954346 -0.11670242 45.38753418 -0.10732147 46.5703125 -0.09765625 C48.08443726 -0.097407 48.08443726 -0.097407 49.62915039 -0.09715271 C53.04981252 0.54834831 54.22395178 1.63281191 56.28515625 4.40405273 C56.79309082 6.57325745 56.79309082 6.57325745 56.80273438 8.94140625 C56.81534302 9.83235489 56.82795166 10.72330353 56.84094238 11.64125061 C56.83284546 12.59551437 56.82474854 13.54977814 56.81640625 14.53295898 C56.82214661 16.0120298 56.82214661 16.0120298 56.82800293 17.52098083 C56.83072228 19.60302757 56.82335949 21.68510846 56.80664062 23.76708984 C56.78520899 26.95869804 56.80645369 30.14806092 56.83203125 33.33959961 C56.82938843 35.36239105 56.82426439 37.38518108 56.81640625 39.40795898 C56.82450317 40.36424698 56.8326001 41.32053497 56.84094238 42.30580139 C56.82833374 43.19359787 56.8157251 44.08139435 56.80273438 44.99609375 C56.799552 45.77678726 56.79636963 46.55748077 56.79309082 47.36183167 C56.28515625 49.40405273 56.28515625 49.40405273 54.44030762 51.11705017 C52.28515625 52.40405273 52.28515625 52.40405273 49.28515625 53.40405273 C49.94515625 54.06405273 50.60515625 54.72405273 51.28515625 55.40405273 C51.28515625 56.39405273 51.28515625 57.38405273 51.28515625 58.40405273 C32.47515625 58.40405273 13.66515625 58.40405273 -5.71484375 58.40405273 C-5.05484375 56.75405273 -4.39484375 55.10405273 -3.71484375 53.40405273 C-4.51921875 52.95030273 -5.32359375 52.49655273 -6.15234375 52.02905273 C-8.71484375 50.40405273 -8.71484375 50.40405273 -9.71484375 48.40405273 C-9.82425205 46.97024244 -9.87383565 45.53161571 -9.8918457 44.09375 C-9.90468094 43.2026503 -9.91751617 42.3115506 -9.93074036 41.39344788 C-9.93812729 40.42886154 -9.94551422 39.46427521 -9.953125 38.47045898 C-9.96119675 37.48158188 -9.96926849 36.49270477 -9.97758484 35.47386169 C-9.99142786 33.3798905 -10.00214904 31.28589673 -10.01000977 29.19189453 C-10.02725597 25.98288593 -10.07114411 22.77489857 -10.11523438 19.56616211 C-10.12535814 17.53426866 -10.13387523 15.50236644 -10.140625 13.47045898 C-10.15813309 12.50789688 -10.17564117 11.54533478 -10.19367981 10.55360413 C-10.19075424 9.65935226 -10.18782867 8.7651004 -10.18481445 7.84375 C-10.19068069 7.05702408 -10.19654694 6.27029816 -10.20259094 5.45973206 C-9.71484375 3.40405273 -9.71484375 3.40405273 -8.04264832 1.65182495 C-5.17417506 0.1142383 -3.24941913 0.01739278 0 0 Z M-3.71484375 6.40405273 C-4.04484375 19.93405273 -4.37484375 33.46405273 -4.71484375 47.40405273 C-2.73484375 47.40405273 -0.75484375 47.40405273 1.28515625 47.40405273 C3.37441878 45.36614857 3.37441878 45.36614857 4.90625 42.50561523 C5.53208984 41.46791992 6.15792969 40.43022461 6.80273438 39.36108398 C7.43630859 38.26151367 8.06988281 37.16194336 8.72265625 36.02905273 C9.98954208 33.8946678 11.2590533 31.7618389 12.53125 29.63061523 C13.14726074 28.59066406 13.76327148 27.55071289 14.39794922 26.47924805 C17.16077015 21.97724385 20.18377086 17.67765769 23.28515625 13.40405273 C25.64038333 17.00752745 27.99413633 20.61196285 30.34765625 24.21655273 C31.00443359 25.22137695 31.66121094 26.22620117 32.33789062 27.26147461 C32.99208984 28.2637207 33.64628906 29.2659668 34.3203125 30.29858398 C34.98047363 31.30228027 35.64063477 32.30597656 36.32080078 33.34008789 C37.64575847 35.40673206 38.92750918 37.50163477 40.16748047 39.62036133 C40.76189941 40.62534668 41.35631836 41.63033203 41.96875 42.66577148 C42.74883423 44.03221802 42.74883423 44.03221802 43.54467773 45.42626953 C44.11903564 46.07893799 44.69339355 46.73160645 45.28515625 47.40405273 C46.93515625 47.40405273 48.58515625 47.40405273 50.28515625 47.40405273 C50.28515625 33.87405273 50.28515625 20.34405273 50.28515625 6.40405273 C32.46515625 6.40405273 14.64515625 6.40405273 -3.71484375 6.40405273 Z " fill="#040000" transform="translate(26.71484375,10.595947265625)"/>
<path d="M0 0 C21.78 0 43.56 0 66 0 C65 5 65 5 63.4375 8 C61.98868834 11.02360695 61.70980277 12.71109809 62 16 C60.35 16 58.7 16 57 16 C56.87625 14.96875 56.7525 13.9375 56.625 12.875 C56.06110186 9.37883154 55.21317941 6.31602373 54 3 C53.34 3.33 52.68 3.66 52 4 C52.433125 5.04800781 52.433125 5.04800781 52.875 6.1171875 C53.24625 7.02726562 53.6175 7.93734375 54 8.875 C54.37125 9.77992187 54.7425 10.68484375 55.125 11.6171875 C56 14 56 14 56 16 C53.525 15.505 53.525 15.505 51 15 C51 14.34 51 13.68 51 13 C49.68 13 48.36 13 47 13 C47 13.99 47 14.98 47 16 C44.69 16 42.38 16 40 16 C40 14.35 40 12.7 40 11 C38.68 11 37.36 11 36 11 C36 12.65 36 14.3 36 16 C35.195625 15.814375 34.39125 15.62875 33.5625 15.4375 C32.2940625 15.2209375 32.2940625 15.2209375 31 15 C30.67 15.33 30.34 15.66 30 16 C41.88 16.33 53.76 16.66 66 17 C66 17.99 66 18.98 66 20 C44.22 20 22.44 20 0 20 C0 19.01 0 18.02 0 17 C9.9 16.505 9.9 16.505 20 16 C19.34 16 18.68 16 18 16 C15.33333333 16 12.66666667 16 10 16 C9.67 15.01 9.34 14.02 9 13 C7.68 13 6.36 13 5 13 C5 13.99 5 14.98 5 16 C4.01 16 3.02 16 2 16 C2.47690204 14.37433394 2.95659666 12.74948689 3.4375 11.125 C3.70433594 10.22007813 3.97117187 9.31515625 4.24609375 8.3828125 C5 6 5 6 6 4 C3.03 3.505 3.03 3.505 0 3 C0 2.01 0 1.02 0 0 Z M9 3 C10.32 6.63 11.64 10.26 13 14 C13.33 14 13.66 14 14 14 C14 10.37 14 6.74 14 3 C12.35 3 10.7 3 9 3 Z M18 3 C18.33 3.99 18.66 4.98 19 6 C19.66 5.01 20.32 4.02 21 3 C20.01 3 19.02 3 18 3 Z M36 3 C36 4.65 36 6.3 36 8 C37.32 8 38.64 8 40 8 C40 6.35 40 4.7 40 3 C38.68 3 37.36 3 36 3 Z M44 3 C44 6.63 44 10.26 44 14 C45.66832577 11.49751135 46.62381674 9.58850813 47.625 6.8125 C47.88539062 6.09707031 48.14578125 5.38164063 48.4140625 4.64453125 C48.60742188 4.10183594 48.80078125 3.55914062 49 3 C47.35 3 45.7 3 44 3 Z M58 3 C58.66 4.32 59.32 5.64 60 7 C60.66 5.68 61.32 4.36 62 3 C60.68 3 59.36 3 58 3 Z M31 3 C31 3.99 31 4.98 31 6 C29.68 5.67 28.36 5.34 27 5 C27.66868314 8.11332248 27.66868314 8.11332248 30.0625 9.1875 C30.701875 9.455625 31.34125 9.72375 32 10 C32 7.69 32 5.38 32 3 C31.67 3 31.34 3 31 3 Z M22 6 C21.34 7.32 20.68 8.64 20 10 C20.99 11.485 20.99 11.485 22 13 C25.56769552 13.73606499 25.56769552 13.73606499 29 14 C28.21625 13.236875 27.4325 12.47375 26.625 11.6875 C24 9 24 9 22 6 Z " fill="#000000" transform="translate(17,70)"/>
<path d="M0 0 C4.45838464 4.0399081 7.33509364 8.46012102 10.375 13.625 C11.33637816 15.23098473 12.29861735 16.83645435 13.26171875 18.44140625 C13.9585376 19.60760498 13.9585376 19.60760498 14.66943359 20.79736328 C16.98313601 24.62749598 19.41709095 28.37711652 21.85546875 32.12890625 C23 34 23 34 23 35 C8.48 35 -6.04 35 -21 35 C-19.47496885 31.18742213 -18.09719248 28.3623788 -15.91796875 24.98046875 C-15.31533203 24.04009766 -14.71269531 23.09972656 -14.09179688 22.13085938 C-13.46337891 21.15955078 -12.83496094 20.18824219 -12.1875 19.1875 C-10.95155804 17.26449313 -9.71587655 15.34131883 -8.48046875 13.41796875 C-7.59560791 12.04390869 -7.59560791 12.04390869 -6.69287109 10.64208984 C-4.43175311 7.11312837 -2.21184391 3.56001543 0 0 Z " fill="#ED1D30" transform="translate(49,23)"/>
<path d="M0 0 C0.99120346 -0.0127597 1.98240692 -0.02551941 3.00364685 -0.03866577 C4.6145797 -0.04200424 4.6145797 -0.04200424 6.25805664 -0.04541016 C7.90784264 -0.05539536 7.90784264 -0.05539536 9.59095764 -0.06558228 C11.92032189 -0.0757213 14.24971527 -0.08039891 16.57910156 -0.08007812 C20.15030587 -0.08445073 23.72027437 -0.12075723 27.29125977 -0.15869141 C29.55102115 -0.16455928 31.81078842 -0.16852887 34.07055664 -0.17041016 C35.67845314 -0.19196671 35.67845314 -0.19196671 37.3188324 -0.21395874 C38.81036583 -0.20472885 38.81036583 -0.20472885 40.33203125 -0.1953125 C41.20758163 -0.19816254 42.08313202 -0.20101257 42.98521423 -0.20394897 C45.23071289 0.29052734 45.23071289 0.29052734 47.03688049 2.13339233 C48.23071289 4.29052734 48.23071289 4.29052734 48.23071289 7.29052734 C29.42071289 7.29052734 10.61071289 7.29052734 -8.76928711 7.29052734 C-5.87355166 0.05118873 -5.87355166 0.05118873 0 0 Z " fill="#E41C2E" transform="translate(29.769287109375,61.70947265625)"/>
</svg>
